<?xml version="1.0" encoding="UTF-8" standalone="no"?><!DOCTYPE svg PUBLIC "-//W3C//DTD SVG 1.1//EN" "http://www.w3.org/Graphics/SVG/1.1/DTD/svg11.dtd"><svg width="100%" height="100%" viewBox="0 0 134 116" version="1.1" xmlns="http://www.w3.org/2000/svg" xmlns:xlink="http://www.w3.org/1999/xlink" xml:space="preserve" xmlns:serif="http://www.serif.com/" style="fill-rule:evenodd;clip-rule:evenodd;stroke-linecap:round;stroke-linejoin:round;stroke-miterlimit:1.5;"><g id="human-start-icon"><path d="M66.995,44.187l-31.918,-18.101l4.015,-7.086l27.903,15.826l27.908,-15.826l4.02,7.086l-31.928,18.101Z" style="fill:#fff;fill-rule:nonzero;"/><path d="M33.013,97.384l0,-43.289l33.895,-19.215l34.079,17.566l0,44.938l-33.994,-19.272l-33.98,19.272Zm33.98,-28.628l25.846,14.65l0,-25.997l-25.756,-13.272l-25.927,14.703l0,24.566l25.837,-14.65Z" style="fill:#fff;fill-rule:nonzero;"/><path d="M134,58.024l-33.5,58.023l-67,0l-33.5,-58.023l33.5,-58.024l67,0l33.5,58.024Z" style="fill:none;stroke:#000;stroke-width:1px;"/></g><g id="alien-start-icon"><path d="M67.009,100.979l-33.996,-19.624l0,-56.517l16.998,-9.817l4.067,7.058l-12.921,7.456l0,47.117l25.852,14.927l25.834,-14.927l0,-47.117l-12.912,-7.456l4.072,-7.058l16.984,9.817l0,56.517l-33.978,19.624Z" style="fill:#fff;fill-rule:nonzero;"/><path d="M67.009,66.431l-31.958,-18.444l4.072,-7.058l27.886,16.103l27.872,-16.103l4.072,7.058l-31.944,18.444Z" style="fill:#fff;fill-rule:nonzero;"/></g><g id="dangerous-icon"><path d="M10.469,39.925l-10.432,18.074l10.432,18.083l10.432,-18.083l-10.432,-18.074Z" style="fill-rule:nonzero;"/><path d="M123.531,39.925l-10.432,18.074l10.432,18.083l10.432,-18.083l-10.432,-18.074Z" style="fill-rule:nonzero;"/><path d="M23.085,97.921l10.432,18.078l20.87,0l-10.438,-18.078l-20.864,0Z" style="fill-rule:nonzero;"/><path d="M79.616,0.003l10.428,18.073l20.874,0l-10.437,-18.073l-20.865,0Z" style="fill-rule:nonzero;"/><path d="M79.612,116l20.865,-0.02l10.442,-18.063l-20.875,0.005l-10.432,18.078Z" style="fill-rule:nonzero;"/><path d="M23.085,18.078l20.864,0l10.438,-18.074l-20.87,0l-10.432,18.074Z" style="fill-rule:nonzero;"/></g><g id="airlock"><path d="M94.427,106.959l-46.254,-0.011l0,-9.349l40.856,0.011l20.423,-35.37l8.102,4.668l-23.127,40.051Z" style="fill:#fff;fill-rule:nonzero;"/><path d="M24.543,53.766l-8.097,-4.674l23.127,-40.051l46.243,0.011l0,9.349l-40.851,-0.006l-20.422,35.371Z" style="fill:#fff;fill-rule:nonzero;"/></g></svg>