<?xml version="1.0" encoding="UTF-8" standalone="no"?><!DOCTYPE svg PUBLIC "-//W3C//DTD SVG 1.1//EN" "http://www.w3.org/Graphics/SVG/1.1/DTD/svg11.dtd"><svg width="100%" height="100%" viewBox="0 0 50 50" version="1.1" xmlns="http://www.w3.org/2000/svg" xmlns:xlink="http://www.w3.org/1999/xlink" xml:space="preserve" xmlns:serif="http://www.serif.com/" style="fill-rule:evenodd;clip-rule:evenodd;stroke-linecap:square;stroke-miterlimit:1.5;"><path id="alien" d="M26.472,8.327c-0.979,-0.096 -1.965,-0.096 -2.944,0l-0.484,2.36c-0.939,0.143 -1.858,0.39 -2.742,0.734l-1.6,-1.801c-0.896,0.407 -1.749,0.9 -2.549,1.472l0.76,2.286c-0.741,0.593 -1.414,1.266 -2.007,2.007l-2.287,-0.76c-0.571,0.8 -1.064,1.654 -1.471,2.549l1.801,1.6c-0.345,0.884 -0.591,1.803 -0.735,2.742l-2.36,0.484c-0.095,0.979 -0.095,1.965 0,2.944l2.36,0.485c0.144,0.938 0.39,1.857 0.735,2.742l-1.801,1.599c0.407,0.896 0.9,1.749 1.471,2.549l2.287,-0.76c0.593,0.741 1.266,1.414 2.007,2.008l-0.76,2.286c0.8,0.572 1.653,1.064 2.549,1.471l1.6,-1.801c0.884,0.345 1.803,0.591 2.742,0.735l0.484,2.36c0.979,0.095 1.965,0.095 2.944,0l0.484,-2.36c0.939,-0.144 1.858,-0.39 2.742,-0.735l1.6,1.801c0.896,-0.407 1.749,-0.899 2.549,-1.471l-0.76,-2.286c0.741,-0.594 1.414,-1.267 2.007,-2.008l2.287,0.76c0.571,-0.8 1.064,-1.653 1.471,-2.549l-1.801,-1.599c0.345,-0.885 0.591,-1.804 0.735,-2.742l2.36,-0.485c0.095,-0.979 0.095,-1.965 0,-2.944l-2.36,-0.484c-0.144,-0.939 -0.39,-1.858 -0.735,-2.742l1.801,-1.6c-0.407,-0.895 -0.9,-1.749 -1.471,-2.549l-2.287,0.76c-0.593,-0.741 -1.266,-1.414 -2.007,-2.007l0.76,-2.286c-0.8,-0.572 -1.653,-1.065 -2.549,-1.472l-1.6,1.801c-0.884,-0.344 -1.803,-0.591 -2.742,-0.734l-0.484,-2.36Zm-1.472,12.102c1.68,0 3.043,1.363 3.043,3.043c0,1.68 -1.363,3.044 -3.043,3.044c-1.68,0 -3.043,-1.364 -3.043,-3.044c0,-1.68 1.363,-3.043 3.043,-3.043Z" style="fill:#fff;stroke:#000;stroke-width:2.5px;"/><path id="airlock" d="M25,9l15.217,11.056l-5.812,17.888l-18.81,0l-5.812,-17.888l15.217,-11.056Z" style="fill:#fff;stroke:#000;stroke-width:2.5px;"/><path id="human" d="M25,3.944l4.384,13.494l14.188,0l-11.478,8.339l4.384,13.494l-11.478,-8.34l-11.478,8.34l4.384,-13.494l-11.478,-8.339l14.188,0l4.384,-13.494Z" style="fill:#fff;stroke:#000;stroke-width:2.5px;"/></svg>